<svg fill="none" height="65" viewBox="0 0 233 65" width="233" xmlns="http://www.w3.org/2000/svg">
    <path
      d="M142.073 10.3019V2.91528H137.631V17.4878H141.752L146.564 10.1647V17.4878H151.006V2.91528H146.885L142.073 10.3019ZM116.459 8.80642C116.459 9.33703 116.191 10.3597 114.834 10.3597H113.259V6.50371H115.027C115.499 6.50371 116.459 6.88919 116.459 8.02638V8.80642ZM115.504 2.91528H108.571V17.4878H113.259V13.9118H115.504C118.538 13.9118 121.021 12.2395 121.021 9.2656V7.56266C121.021 4.58761 118.538 2.91528 115.504 2.91528V2.91528ZM181.906 10.6261C181.906 12.845 181.323 13.1681 180.487 13.5524C180.119 13.7214 179.132 13.684 179.132 13.684V17.4878H180.97C184.913 17.4878 186.372 15.1942 186.43 10.0502C186.444 8.88579 186.419 7.73953 186.43 6.71799H189.06V17.4878H193.748V2.91528H181.906V10.6261ZM102.27 12.5865C102.27 13.5513 101.481 14.3415 100.516 14.3415H100.116C99.1524 14.3415 98.3611 13.5513 98.3611 12.5865V7.86085C98.3611 6.896 99.1524 6.10688 100.116 6.10688H100.516C101.481 6.10688 102.27 6.896 102.27 7.86085V12.5865ZM101.464 2.67719H99.1672C96.1332 2.67719 93.6525 4.83931 93.6525 8.19304V12.2611C93.6525 15.6295 96.1332 17.7746 99.1672 17.7746H101.464C104.497 17.7746 106.981 15.6091 106.981 12.2611V8.19304C106.981 4.66131 104.497 2.67719 101.464 2.67719V2.67719ZM166.445 2.91528H161.373L158.901 8.42547H157.742V2.91528H153.055V17.4878H157.742V12.3098H158.894L161.422 17.4878H166.804L162.829 10.1363L166.445 2.91528ZM172.258 11.9583H177.541V8.49236H172.258V6.71799H178.02V2.91528H167.569V17.4878H178.449V13.684H172.258V11.9583ZM201.987 13.8982H200.219V10.7191H201.794C203.118 10.7191 203.419 11.6919 203.419 12.3223C203.419 13.6284 202.343 13.8982 201.987 13.8982V13.8982ZM202.465 7.16697H200.219V2.91528H195.531V17.4878H202.465C205.498 17.4878 207.981 15.8155 207.981 12.8404V11.8143C207.981 8.8393 205.498 7.16697 202.465 7.16697V7.16697ZM130.895 8.30869H126.893V2.91528H122.206V17.4878H126.893V12.3098H130.895V17.4878H135.58V2.91528H130.895V8.30869ZM87.3747 8.30869H83.3747V2.91528H78.6865V17.4878H83.3747V12.3098H87.3747V17.4878H92.0618V2.91528H87.3747V8.30869Z"
      fill="#5A5758"/>
    <path d="M21.8579 28.9717L43.715 43.7154V14.7438L21.8579 0.000124279V28.9717Z" fill="#145BA2"/>
    <path
      d="M21.8571 0.000454399C9.78681 0.000454399 0 9.78727 0 21.8575C0 33.93 9.78681 43.7169 21.8571 43.7169V0.000454399Z"
      fill="#0E88D3"/>
    <path
      d="M43.7139 43.7153C55.7853 43.7153 65.5721 33.9285 65.5721 21.8582C65.5721 9.78568 55.7853 2.20853e-06 43.7139 2.20853e-06V43.7153Z"
      fill="#0E88D3"/>
    <path d="M206.96 29.8735H78.686V29.1445H206.96V29.8735Z" fill="#5A5758"/>
    <path d="M80.8478 48.0866V40.3122H78.0825V39.3417H84.7151V40.3122H81.9362V48.0866H80.8478Z" fill="#5A5758"/>
    <path
      d="M88.3556 40.4701L86.4928 45.1753H90.2037L88.3556 40.4701ZM91.3057 48.0868L90.5314 46.1458H86.1788L85.4055 48.0868H84.1606L87.6731 39.3419H89.0246L92.5495 48.0868H91.3057Z"
      fill="#5A5758"/>
    <path
      d="M97.4249 38.8435C96.494 38.8435 95.655 38.3979 95.1188 37.6905L95.604 37.271C96.0224 37.8481 96.6505 38.2143 97.4249 38.2143C98.1856 38.2143 98.8274 37.8617 99.2344 37.271L99.7185 37.6905C99.1958 38.3979 98.3693 38.8435 97.4249 38.8435ZM93.8081 48.0861V39.3412H94.8954V46.1723L99.9283 39.3412H101.043V48.0861H99.9543V41.1122L94.8557 48.0861H93.8081Z"
      fill="#5A5758"/>
    <path
      d="M110.56 48.0866V40.8893L107.585 48.0866H107.138L104.177 40.8893V48.0866H103.088V39.3417H104.648L107.362 45.9233L110.088 39.3417H111.648V48.0866H110.56Z"
      fill="#5A5758"/>
    <path
      d="M120.897 39.3417H121.985V48.0866H120.897V39.3417ZM114.787 43.7861V47.116H117.082C118.119 47.116 118.826 46.4346 118.826 45.4517C118.826 44.4687 118.119 43.7861 117.082 43.7861H114.787ZM114.787 39.3417V42.8167H117.214C118.944 42.8167 119.953 44.022 119.953 45.4517C119.953 46.8802 118.971 48.0866 117.214 48.0866H113.7V39.3417H114.787Z"
      fill="#5A5758"/>
    <path
      d="M129.164 41.977C129.164 40.994 128.456 40.3114 127.421 40.3114H125.126V43.6425H127.421C128.456 43.6425 129.164 42.9599 129.164 41.977ZM124.039 48.0869V39.342H127.552C129.308 39.342 130.291 40.5484 130.291 41.977C130.291 43.4055 129.282 44.6119 127.552 44.6119H125.126V48.0869H124.039Z"
      fill="#5A5758"/>
    <path
      d="M131.447 43.7208C131.447 41.0337 133.426 39.1982 135.944 39.1982C137.489 39.1982 138.565 39.9464 139.26 40.9283L138.342 41.4396C137.844 40.7061 136.94 40.1675 135.944 40.1675C134.029 40.1675 132.574 41.6358 132.574 43.7208C132.574 45.7922 134.029 47.2741 135.944 47.2741C136.94 47.2741 137.844 46.7491 138.342 46.002L139.272 46.5122C138.539 47.5088 137.489 48.2435 135.944 48.2435C133.426 48.2435 131.447 46.4079 131.447 43.7208Z"
      fill="#5A5758"/>
    <path
      d="M145.924 48.0866L142.608 44.1535L141.729 45.1501V48.0866H140.642V39.3417H141.729V43.8644L145.596 39.3417H146.959L143.315 43.4981L147.273 48.0866H145.924Z"
      fill="#5A5758"/>
    <path
      d="M152.368 40.4701L150.507 45.1753H154.217L152.368 40.4701ZM155.318 48.0868L154.545 46.1458H150.192L149.418 48.0868H148.174L151.686 39.3419H153.037L156.562 48.0868H155.318Z"
      fill="#5A5758"/>
    <path
      d="M162.894 43.6555V40.312H160.587C159.564 40.312 158.843 40.9934 158.843 41.9775C158.843 42.9605 159.564 43.6555 160.587 43.6555H162.894ZM157.638 48.0863L159.996 44.5206C158.804 44.4152 157.716 43.5501 157.716 41.9775C157.716 40.3653 158.855 39.3415 160.468 39.3415H163.982V48.0863H162.894V44.6124H161.137L158.909 48.0863H157.638Z"
      fill="#5A5758"/>
    <path d="M80.8478 64.8431V57.071H78.0825V56.1005H84.7151V57.071H81.9374V64.8431H80.8478Z" fill="#5A5758"/>
    <path
      d="M92.8532 60.4785C92.8532 58.4331 91.5947 56.9263 89.6412 56.9263C87.6764 56.9263 86.4292 58.4331 86.4292 60.4785C86.4292 62.5102 87.6764 64.0306 89.6412 64.0306C91.5947 64.0306 92.8532 62.5102 92.8532 60.4785ZM85.3022 60.4785C85.3022 57.8968 87.046 55.9569 89.6412 55.9569C92.224 55.9569 93.9802 57.8968 93.9802 60.4785C93.9802 63.0601 92.224 65 89.6412 65C87.046 65 85.3022 63.0601 85.3022 60.4785Z"
      fill="#5A5758"/>
    <path d="M101.811 64.8431V57.071H96.6976V64.8431H95.6104V56.1005H102.898V64.8431H101.811Z" fill="#5A5758"/>
    <path
      d="M104.292 64.0304C105.341 64.0304 105.93 63.4544 106.299 60.4918L106.835 56.1007H112.183V64.8433H111.095V57.0701H107.806L107.372 60.5701C106.901 64.4113 105.852 64.9998 104.292 64.9998V64.0304Z"
      fill="#5A5758"/>
    <path
      d="M114.229 64.8431V56.1005H115.318V62.9293L120.351 56.1005H121.465V64.8431H120.378V57.8703L115.278 64.8431H114.229Z"
      fill="#5A5758"/>
    <path
      d="M128.899 62.3662C128.899 61.5658 128.35 60.8594 127.274 60.8594H124.6V63.873H127.274C128.297 63.873 128.899 63.2971 128.899 62.3662ZM128.729 58.4853C128.729 57.6996 128.206 57.0703 127.223 57.0703H124.6V59.8878H127.223C128.206 59.8878 128.729 59.2846 128.729 58.4853V58.4853ZM123.512 64.8435V56.1009H127.406C128.926 56.1009 129.856 57.017 129.856 58.3277C129.856 59.4297 129.123 60.1644 128.323 60.3345C129.254 60.4785 130.026 61.4354 130.026 62.4841C130.026 63.8866 129.097 64.8435 127.498 64.8435H123.512Z"
      fill="#5A5758"/>
    <path
      d="M137.947 64.8431V60.8329H132.833V64.8431H131.746V56.1005H132.833V59.8624H137.947V56.1005H139.034V64.8431H137.947Z"
      fill="#5A5758"/>
    <path
      d="M144.486 57.2277L142.625 61.9329H146.335L144.486 57.2277ZM147.436 64.8433L146.663 62.9034H142.31L141.536 64.8433H140.292L143.804 56.1007H145.155L148.681 64.8433H147.436Z"
      fill="#5A5758"/>
    <path
      d="M155.013 60.4131V57.0707H152.705C151.682 57.0707 150.962 57.7521 150.962 58.7362C150.962 59.7192 151.682 60.4131 152.705 60.4131H155.013ZM149.755 64.8427L152.115 61.2781C150.923 61.1738 149.835 60.3076 149.835 58.7362C149.835 57.1228 150.974 56.1001 152.586 56.1001H156.1V64.8427H155.013V61.37H153.255L151.026 64.8427H149.755Z"
      fill="#5A5758"/>
    <path
      d="M167.32 64.8431L164.004 60.91L163.127 61.9066V64.8431H162.038V56.1005H163.127V60.622L166.993 56.1005H168.357L164.712 60.2547L168.671 64.8431H167.32Z"
      fill="#5A5758"/>
    <path
      d="M176.294 60.4785C176.294 58.4331 175.037 56.9263 173.084 56.9263C171.118 56.9263 169.872 58.4331 169.872 60.4785C169.872 62.5102 171.118 64.0306 173.084 64.0306C175.037 64.0306 176.294 62.5102 176.294 60.4785ZM168.745 60.4785C168.745 57.8968 170.488 55.9569 173.084 55.9569C175.665 55.9569 177.421 57.8968 177.421 60.4785C177.421 63.0601 175.665 65 173.084 65C170.488 65 168.745 63.0601 168.745 60.4785Z"
      fill="#5A5758"/>
    <path
      d="M186.505 64.8431V57.6458L183.529 64.8431H183.083L180.121 57.6458V64.8431H179.033V56.1005H180.592L183.306 62.681L186.033 56.1005H187.592V64.8431H186.505Z"
      fill="#5A5758"/>
    <path d="M195.841 64.8431V57.071H190.729V64.8431H189.641V56.1005H196.93V64.8431H195.841Z" fill="#5A5758"/>
    <path
      d="M202.382 57.2277L200.519 61.9329H204.23L202.382 57.2277ZM205.332 64.8433L204.557 62.9034H200.205L199.431 64.8433H198.187L201.699 56.1007H203.05L206.575 64.8433H205.332Z"
      fill="#5A5758"/>
    <path
      d="M214.034 64.8431V60.8329H208.92V64.8431H207.833V56.1005H208.92V59.8624H214.034V56.1005H215.121V64.8431H214.034Z"
      fill="#5A5758"/>
    <path
      d="M217.167 64.8431V56.1005H218.255V62.9293L223.288 56.1005H224.403V64.8431H223.314V57.8703L218.216 64.8431H217.167Z"
      fill="#5A5758"/>
    <path
      d="M231.234 60.4131V57.0707H228.928C227.905 57.0707 227.184 57.7521 227.184 58.7362C227.184 59.7192 227.905 60.4131 228.928 60.4131H231.234ZM225.978 64.8427L228.337 61.2781C227.145 61.1738 226.057 60.3076 226.057 58.7362C226.057 57.1228 227.196 56.1001 228.809 56.1001H232.323V64.8427H231.234V61.37H229.478L227.25 64.8427H225.978Z"
      fill="#5A5758"/>
</svg>
